<svg width="29" height="65" viewBox="0 0 29 65" fill="none" xmlns="http://www.w3.org/2000/svg">
<path d="M7.52828 3.63947C8.33582 0.933746 11.1581 -0.597251 13.8321 0.219898L16.2529 0.959687C18.9268 1.77684 20.4398 4.63269 19.6322 7.33842L12.3213 31.8342C11.5137 34.5399 8.69144 36.0709 6.0175 35.2538L3.59671 34.514C0.922774 33.6968 -0.590233 30.841 0.217314 28.1352L7.52828 3.63947Z" fill="#30519F"/>
<path d="M16.6787 33.1658C17.4863 30.4601 20.3086 28.9291 22.9825 29.7462L25.4033 30.486C28.0772 31.3032 29.5902 34.159 28.7827 36.8648L21.4717 61.3605C20.6642 64.0663 17.8419 65.5973 15.1679 64.7801L12.7471 64.0403C10.0732 63.2232 8.5602 60.3673 9.36775 57.6616L16.6787 33.1658Z" fill="#30519F"/>
</svg>
